<svg xmlns="http://www.w3.org/2000/svg" width="17" height="16" viewBox="0 0 17 16" fill="none">
  <g clip-path="url(#clip0_265_2009)">
    <path fill-rule="evenodd" clip-rule="evenodd" d="M35.082 4.23501L34.931 3.51801H32.833V12.02H35.257V6.25001C35.8305 5.50001 36.798 5.64601 37.106 5.74151V3.51901C36.783 3.40301 35.6495 3.19001 35.082 4.23401V4.23501ZM30.217 1.41201L27.849 1.91501L27.839 9.69601C27.839 11.131 28.918 12.1925 30.358 12.1925C31.1505 12.1925 31.736 12.0415 32.0605 11.871V9.89601C31.7495 10.02 30.219 10.465 30.219 9.03601V5.58601H32.0605V3.51751H30.219L30.217 1.41201ZM23.65 5.98501C23.65 5.60601 23.965 5.46001 24.474 5.46001C25.3166 5.47825 26.1434 5.69222 26.889 6.08501V3.80001C26.1202 3.4977 25.3001 3.34693 24.474 3.35601C22.512 3.35601 21.1955 4.38401 21.1955 6.10001C21.1955 8.78501 24.883 8.34901 24.883 9.50651C24.883 9.95951 24.493 10.0995 23.9515 10.0995C23.1485 10.0995 22.1115 9.76751 21.298 9.32451V11.6395C22.1355 12.0038 23.0383 12.1938 23.9515 12.198C25.968 12.198 27.358 11.202 27.358 9.45551C27.358 6.55751 23.6495 7.07551 23.6495 5.98401L23.65 5.98501ZM7.44 4.75751C7.44 4.07251 8.01 3.80751 8.931 3.80751C10.4553 3.84044 11.951 4.22747 13.3 4.93801V0.803005C11.909 0.256362 10.4254 -0.0161405 8.931 0.000505453C5.381 0.000505453 3 1.86001 3 4.96501C3 9.82301 9.671 9.03401 9.671 11.128C9.671 11.947 8.971 12.201 7.986 12.201C6.5335 12.201 4.6575 11.6 3.186 10.8V14.989C4.701 15.6482 6.33431 15.9922 7.9865 16C11.635 16 14.15 14.1975 14.15 11.0385C14.15 5.79551 7.44 6.73201 7.44 4.75851V4.75751Z" fill="white"/>
  </g>
  <defs>
    <clipPath id="clip0_265_2009">
      <rect width="16" height="16" fill="white" transform="translate(0.5)"/>
    </clipPath>
  </defs>
</svg>